/vscmnt/brussel_pixiu_data/_data_brussel/112/vsc11236/PredSimResults/SUBJ10mtu3D/worker2.mot
version=1
nRows=6
nColumns=50
inDegrees=yes
endheader
                time	         pelvis_tilt	         pelvis_list	     pelvis_rotation	           pelvis_tx	           pelvis_ty	           pelvis_tz	       hip_flexion_r	     hip_adduction_r	      hip_rotation_r	        knee_angle_r	       ankle_angle_r	         mtp_angle_r	       hip_flexion_l	     hip_adduction_l	      hip_rotation_l	        knee_angle_l	       ankle_angle_l	         mtp_angle_l	    lumbar_extension	      lumbar_bending	     lumbar_rotation	 ercspn_r/activation	 intobl_r/activation	 extobl_r/activation	    abd_r/activation	    add_r/activation	hamstrings_r/activation	bifemsh_r/activation	glut_max_r/activation	iliopsoas_r/activation	rect_fem_r/activation	  vasti_r/activation	gastroc_r/activation	 soleus_r/activation	tib_ant_r/activation	 ercspn_l/activation	 intobl_l/activation	 extobl_l/activation	    abd_l/activation	    add_l/activation	hamstrings_l/activation	bifemsh_l/activation	glut_max_l/activation	iliopsoas_l/activation	rect_fem_l/activation	  vasti_l/activation	gastroc_l/activation	 soleus_l/activation	tib_ant_l/activation	
          0.00000000	         -4.55011344	         -0.72671449	          7.38306861	          0.00000000	          0.82342844	         -0.01247650	         31.19455183	         -1.48373715	         -5.57189653	         -6.61318400	          4.02240554	          0.26729429	        -15.81431261	         -0.06260953	          1.89730419	         -5.16587918	          8.33683405	         25.49287810	         -6.59364287	         -0.93420062	         -5.18424480	          0.11629767	          0.17875062	          0.01000084	          0.01182829	          0.10971773	          0.12109673	          0.25881461	          0.02068378	          0.07667154	          0.01000324	          0.01000155	          0.01000146	          0.01000033	          0.26924358	          0.07485675	          0.01000012	          0.01000041	          0.05677188	          0.01000060	          0.01250049	          0.22729994	          0.01407110	          0.37041177	          0.01000225	          0.01000031	          0.30285382	          0.23970627	          0.02506838	
          0.01096914	         -4.57062862	         -0.70756221	          7.46798207	          0.01536872	          0.82212934	         -0.01238265	         30.98263884	         -1.30798906	         -5.15462399	         -7.95758835	          3.72519506	          0.26387548	        -15.90333582	         -0.14287610	          1.56809626	         -6.88573579	          7.73187850	         27.16360904	         -6.41559005	         -0.52197999	         -5.47222099	          0.09832303	          0.15112294	          0.01000130	          0.01000021	          0.14244829	          0.10238214	          0.22838770	          0.06024027	          0.06482107	          0.01000107	          0.01000022	          0.01655083	          0.01183009	          0.29065458	          0.11008570	          0.01000031	          0.01000078	          0.04799711	          0.01004993	          0.01849679	          0.19216821	          0.01189834	          0.31316116	          0.01000210	          0.01000080	          0.27018192	          0.23122822	          0.02119378	
          0.02193828	         -4.58312623	         -0.70135630	          7.51085265	          0.03100963	          0.82101432	         -0.01221405	         30.62736852	         -1.14373738	         -4.69787570	         -9.20400053	          3.29644537	          0.25599500	        -15.88090965	         -0.23897066	          1.20453889	         -8.83231696	          6.99572557	         28.78612988	         -6.21740621	         -0.08697132	         -5.74050426	          0.09638369	          0.12776531	          0.01000061	          0.04112317	          0.12043318	          0.08909046	          0.19308852	          0.09260523	          0.05480222	          0.01000041	          0.01000015	          0.01399278	          0.01000168	          0.38244742	          0.12103970	          0.01000012	          0.01000052	          0.04057859	          0.01000155	          0.01569774	          0.16246650	          0.01005952	          0.26475885	          0.01000175	          0.01000037	          0.22842223	          0.21759555	          0.01791805	
          0.03290742	         -4.58933690	         -0.69197920	          7.50684527	          0.04673140	          0.82020985	         -0.01193515	         30.20814499	         -0.97870577	         -4.32351226	        -10.31017348	          2.73356170	          0.24383416	        -15.68572044	         -0.33353368	          0.80218834	        -11.08185013	          6.11540703	         30.28289088	         -6.02171464	          0.34527907	         -5.98229218	          0.11079308	          0.10801771	          0.01000061	          0.09083557	          0.15126761	          0.07532087	          0.16324476	          0.11116268	          0.04633191	          0.01000062	          0.01000036	          0.01183013	          0.01000019	          0.43407783	          0.14895083	          0.01000012	          0.01000048	          0.03430669	          0.01000091	          0.01817741	          0.13735555	          0.01000046	          0.22383765	          0.01000214	          0.01000038	          0.19311685	          0.20133037	          0.01514862	
          0.04387656	         -4.58884016	         -0.67906113	          7.46003661	          0.06239536	          0.81981681	         -0.01155411	         29.80497471	         -0.81146630	         -4.03449562	        -11.45486917	          2.23212916	          0.22949267	        -15.27393434	         -0.42843886	          0.35478369	        -13.68423674	          5.09679489	         31.52033119	         -5.83989156	          0.77256006	         -6.19569445	          0.11331410	          0.09132231	          0.01000063	          0.12672070	          0.19092826	          0.06564044	          0.13801363	          0.11776578	          0.03917078	          0.01000075	          0.01016179	          0.01000199	          0.01000057	          0.45615699	          0.17668066	          0.01000018	          0.01000042	          0.02900419	          0.01339958	          0.02100412	          0.11612581	          0.01000125	          0.18924110	          0.01000130	          0.01000042	          0.16326833	          0.18095650	          0.01280726	
          0.05484570	         -4.58200585	         -0.66524709	          7.37625052	          0.07791208	          0.81989740	         -0.01108001	         29.45162539	         -0.64275745	         -3.81350042	        -12.70655473	          1.90095990	          0.21482231	        -14.61288179	         -0.53152637	         -0.14422784	        -16.67370134	          3.96639754	         32.31313127	         -5.67578791	          1.19443984	         -6.38312432	          0.11353927	          0.07720738	          0.01000060	          0.15085944	          0.21690911	          0.06244263	          0.11668228	          0.11689347	          0.03311649	          0.01000066	          0.04290030	          0.01000060	          0.01000039	          0.46313640	          0.19569103	          0.01000020	          0.01000043	          0.02452125	          0.06990029	          0.02322293	          0.09817744	          0.01000033	          0.15999184	          0.01000088	          0.01000022	          0.13803325	          0.15298770	          0.01082781	
